# xmcd
#
# Track frame offsets: 
#        189
#        12578
#        24528
#        48106
#        61266
#        77321
#        90667
#        107319
#        121738
#        136605
#        151984
#        163161
#        173706
#        187356
#        201146
#        215516
#        227566
#        245820
#        262858
#
# Disc length: 3757 seconds
#
# Revision: 0
# Processed by: cddbd v1.4PL0 Copyright (c) Steve Scherf et al.
# Submitted via: ExactAudioCopy v0.90b4
#
DISCID=ef0eab13
DTITLE=Dolly Parton - The Ultimate Collection
DYEAR=2002
DGENRE=Pop
TTITLE0=9 To 5
TTITLE1=Jolene
TTITLE2=You Are
TTITLE3=I Will Always Love You
TTITLE4=Heartbreaker
TTITLE5=Here You Come Again
TTITLE6=The Great Pretender
TTITLE7=We Used To
TTITLE8=But You Know I Love You
TTITLE9=Applejack
TTITLE10=Baby I'm Burning
TTITLE11=Love Is Like A Butterfly
TTITLE12=Two Doors Down
TTITLE13=Coat Of Many Colors
TTITLE14=Tenessee Homesick Blues
TTITLE15=The Bargain Store
TTITLE16=Do I Ever Cross Your Mind
TTITLE17=Save The Last Dance For Me
TTITLE18=Little Sparrow
EXTD=Ripped by DjMaxX!
EXTT0=
EXTT1=
EXTT2=
EXTT3=
EXTT4=
EXTT5=
EXTT6=
EXTT7=
EXTT8=
EXTT9=
EXTT10=
EXTT11=
EXTT12=
EXTT13=
EXTT14=
EXTT15=
EXTT16=
EXTT17=
EXTT18=
PLAYORDER=
